<?xml version="1.0" encoding="UTF-8" standalone="no"?><!-- Generator: Gravit.io --><svg xmlns="http://www.w3.org/2000/svg" xmlns:xlink="http://www.w3.org/1999/xlink" style="isolation:isolate" viewBox="0 0 500 200" width="500pt" height="200pt"><defs><clipPath id="_clipPath_5dND7nd5VbpE4Wi8FUiLhbswXJaf48lt"><rect width="500" height="200"/></clipPath></defs><g clip-path="url(#_clipPath_5dND7nd5VbpE4Wi8FUiLhbswXJaf48lt)"><path d=" M 102.524 120.904 L 102.524 120.904 Q 103.876 120.904 104.656 122.152 L 104.656 122.152 L 104.656 122.152 Q 105.436 123.4 105.436 125.584 L 105.436 125.584 L 105.436 125.584 Q 105.436 129.64 103.46 132.032 L 103.46 132.032 L 103.46 132.032 Q 98.468 138.064 93.372 141.34 L 93.372 141.34 L 93.372 141.34 Q 88.276 144.616 81.308 144.616 L 81.308 144.616 L 81.308 144.616 Q 74.548 144.616 69.816 140.976 L 69.816 140.976 L 69.816 140.976 Q 65.084 137.336 60.82 128.496 L 60.82 128.496 L 60.82 128.496 Q 57.388 121.424 55.412 118.044 L 55.412 118.044 L 55.412 118.044 Q 53.436 114.664 51.512 113.208 L 51.512 113.208 L 51.512 113.208 Q 49.588 111.752 46.78 111.44 L 46.78 111.44 L 46.78 111.44 Q 46.364 113.624 44.388 125.168 L 44.388 125.168 L 44.388 125.168 Q 43.556 130.368 43.348 131.512 L 43.348 131.512 L 43.348 131.512 Q 42.308 137.856 39.188 141.236 L 39.188 141.236 L 39.188 141.236 Q 36.068 144.616 29.724 144.616 L 29.724 144.616 L 29.724 144.616 Q 22.756 144.616 17.4 140.508 L 17.4 140.508 L 17.4 140.508 Q 12.044 136.4 9.132 129.068 L 9.132 129.068 L 9.132 129.068 Q 6.22 121.736 6.22 112.376 L 6.22 112.376 L 6.22 112.376 Q 6.22 94.904 12.304 82.216 L 12.304 82.216 L 12.304 82.216 Q 18.388 69.528 29.36 62.82 L 29.36 62.82 L 29.36 62.82 Q 40.332 56.112 54.684 56.112 L 54.684 56.112 L 54.684 56.112 Q 64.668 56.112 71.428 59.128 L 71.428 59.128 L 71.428 59.128 Q 78.188 62.144 81.464 67.448 L 81.464 67.448 L 81.464 67.448 Q 84.74 72.752 84.74 79.408 L 84.74 79.408 L 84.74 79.408 Q 84.74 85.232 81.984 90.796 L 81.984 90.796 L 81.984 90.796 Q 79.228 96.36 73.716 100.624 L 73.716 100.624 L 73.716 100.624 Q 68.204 104.888 60.3 106.968 L 60.3 106.968 L 60.3 106.968 Q 65.292 108.32 67.996 111.336 L 67.996 111.336 L 67.996 111.336 Q 70.7 114.352 73.404 120.176 L 73.404 120.176 L 73.404 120.176 Q 76.316 126.416 79.176 129.328 L 79.176 129.328 L 79.176 129.328 Q 82.036 132.24 85.78 132.24 L 85.78 132.24 L 85.78 132.24 Q 89.108 132.24 92.124 130.004 L 92.124 130.004 L 92.124 130.004 Q 95.14 127.768 99.716 122.36 L 99.716 122.36 L 99.716 122.36 Q 100.964 120.904 102.524 120.904 L 102.524 120.904 L 102.524 120.904 Z  M 29.62 126.936 L 32.428 111.336 L 32.428 111.336 Q 28.892 111.336 27.592 109.672 L 27.592 109.672 L 27.592 109.672 Q 26.292 108.008 26.292 105.928 L 26.292 105.928 L 26.292 105.928 Q 26.292 103.432 27.904 101.976 L 27.904 101.976 L 27.904 101.976 Q 29.516 100.52 31.596 100.52 L 31.596 100.52 L 34.196 100.52 L 34.196 100.52 Q 35.86 90.328 37.316 82.944 L 37.316 82.944 L 37.316 82.944 Q 38.668 76.184 46.052 76.184 L 46.052 76.184 L 46.052 76.184 Q 51.98 76.184 51.98 81.488 L 51.98 81.488 L 51.98 81.488 Q 51.98 82.632 51.876 83.256 L 51.876 83.256 L 48.756 100.52 L 48.756 100.52 Q 54.372 100.208 59 97.816 L 59 97.816 L 59 97.816 Q 63.628 95.424 66.384 91.16 L 66.384 91.16 L 66.384 91.16 Q 69.14 86.896 69.14 81.488 L 69.14 81.488 L 69.14 81.488 Q 69.14 74.936 64.668 71.192 L 64.668 71.192 L 64.668 71.192 Q 60.196 67.448 51.564 67.448 L 51.564 67.448 L 51.564 67.448 Q 41.372 67.448 33.728 72.492 L 33.728 72.492 L 33.728 72.492 Q 26.084 77.536 21.82 87.468 L 21.82 87.468 L 21.82 87.468 Q 17.556 97.4 17.556 111.648 L 17.556 111.648 L 17.556 111.648 Q 17.556 118.304 18.908 123.088 L 18.908 123.088 L 18.908 123.088 Q 20.26 127.872 22.236 130.264 L 22.236 130.264 L 22.236 130.264 Q 24.212 132.656 25.98 132.656 L 25.98 132.656 L 25.98 132.656 Q 27.332 132.656 28.216 131.304 L 28.216 131.304 L 28.216 131.304 Q 29.1 129.952 29.62 126.936 L 29.62 126.936 L 29.62 126.936 Z  M 141.316 120.904 L 141.316 120.904 Q 142.668 120.904 143.448 122.152 L 143.448 122.152 L 143.448 122.152 Q 144.228 123.4 144.228 125.584 L 144.228 125.584 L 144.228 125.584 Q 144.228 129.744 142.252 132.032 L 142.252 132.032 L 142.252 132.032 Q 138.404 136.712 131.384 140.664 L 131.384 140.664 L 131.384 140.664 Q 124.364 144.616 116.356 144.616 L 116.356 144.616 L 116.356 144.616 Q 105.436 144.616 99.404 138.688 L 99.404 138.688 L 99.404 138.688 Q 93.372 132.76 93.372 122.464 L 93.372 122.464 L 93.372 122.464 Q 93.372 115.288 96.388 109.1 L 96.388 109.1 L 96.388 109.1 Q 99.404 102.912 104.76 99.272 L 104.76 99.272 L 104.76 99.272 Q 110.116 95.632 116.876 95.632 L 116.876 95.632 L 116.876 95.632 Q 122.908 95.632 126.548 99.22 L 126.548 99.22 L 126.548 99.22 Q 130.188 102.808 130.188 108.944 L 130.188 108.944 L 130.188 108.944 Q 130.188 116.12 125.04 121.268 L 125.04 121.268 L 125.04 121.268 Q 119.892 126.416 107.62 129.432 L 107.62 129.432 L 107.62 129.432 Q 110.22 134.216 117.5 134.216 L 117.5 134.216 L 117.5 134.216 Q 122.18 134.216 128.16 130.94 L 128.16 130.94 L 128.16 130.94 Q 134.14 127.664 138.508 122.36 L 138.508 122.36 L 138.508 122.36 Q 139.756 120.904 141.316 120.904 L 141.316 120.904 L 141.316 120.904 Z  M 115.108 105.824 L 115.108 105.824 Q 111.26 105.824 108.608 110.296 L 108.608 110.296 L 108.608 110.296 Q 105.956 114.768 105.956 121.112 L 105.956 121.112 L 105.956 121.32 L 105.956 121.32 Q 112.092 119.864 115.628 116.952 L 115.628 116.952 L 115.628 116.952 Q 119.164 114.04 119.164 110.192 L 119.164 110.192 L 119.164 110.192 Q 119.164 108.216 118.072 107.02 L 118.072 107.02 L 118.072 107.02 Q 116.98 105.824 115.108 105.824 L 115.108 105.824 L 115.108 105.824 Z  M 188.532 121.112 L 188.532 121.112 Q 189.884 121.112 190.664 122.412 L 190.664 122.412 L 190.664 122.412 Q 191.444 123.712 191.444 125.688 L 191.444 125.688 L 191.444 125.688 Q 191.444 128.08 190.716 129.432 L 190.716 129.432 L 190.716 129.432 Q 189.988 130.784 188.428 131.824 L 188.428 131.824 L 188.428 131.824 Q 179.484 137.856 175.324 140.768 L 175.324 140.768 L 168.668 145.24 L 168.668 145.24 Q 164.716 166.768 158.32 179.092 L 158.32 179.092 L 158.32 179.092 Q 151.924 191.416 142.044 191.416 L 142.044 191.416 L 142.044 191.416 Q 136.74 191.416 133.412 188.14 L 133.412 188.14 L 133.412 188.14 Q 130.084 184.864 130.084 179.56 L 130.084 179.56 L 130.084 179.56 Q 130.084 172.176 135.908 163.7 L 135.908 163.7 L 135.908 163.7 Q 141.732 155.224 157.748 142.848 L 157.748 142.848 L 158.372 138.792 L 158.372 138.792 Q 156.604 141.6 153.744 143.108 L 153.744 143.108 L 153.744 143.108 Q 150.884 144.616 148.076 144.616 L 148.076 144.616 L 148.076 144.616 Q 141.628 144.616 137.78 139.936 L 137.78 139.936 L 137.78 139.936 Q 133.932 135.256 133.932 127.664 L 133.932 127.664 L 133.932 127.664 Q 133.932 119.344 137.78 111.908 L 137.78 111.908 L 137.78 111.908 Q 141.628 104.472 148.024 99.948 L 148.024 99.948 L 148.024 99.948 Q 154.42 95.424 161.596 95.424 L 161.596 95.424 L 161.596 95.424 Q 163.884 95.424 164.664 96.308 L 164.664 96.308 L 164.664 96.308 Q 165.444 97.192 165.964 99.48 L 165.964 99.48 L 165.964 99.48 Q 167.94 99.064 170.54 99.064 L 170.54 99.064 L 170.54 99.064 Q 173.14 99.064 174.232 99.844 L 174.232 99.844 L 174.232 99.844 Q 175.324 100.624 175.324 102.912 L 175.324 102.912 L 175.324 102.912 Q 175.324 104.16 175.22 104.888 L 175.22 104.888 L 175.22 104.888 Q 174.804 108.112 172.62 121.216 L 172.62 121.216 L 172.62 121.216 Q 172.204 123.712 171.736 126.676 L 171.736 126.676 L 171.736 126.676 Q 171.268 129.64 170.748 132.968 L 170.748 132.968 L 170.748 132.968 Q 178.756 126.728 186.14 121.944 L 186.14 121.944 L 186.14 121.944 Q 187.492 121.112 188.532 121.112 L 188.532 121.112 L 188.532 121.112 Z  M 151.82 134.112 L 151.82 134.112 Q 154.212 134.112 156.396 131.2 L 156.396 131.2 L 156.396 131.2 Q 158.58 128.288 159.516 122.88 L 159.516 122.88 L 162.844 105.096 L 162.844 105.096 Q 158.58 105.2 154.94 108.372 L 154.94 108.372 L 154.94 108.372 Q 151.3 111.544 149.116 116.744 L 149.116 116.744 L 149.116 116.744 Q 146.932 121.944 146.932 127.768 L 146.932 127.768 L 146.932 127.768 Q 146.932 130.992 148.232 132.552 L 148.232 132.552 L 148.232 132.552 Q 149.532 134.112 151.82 134.112 L 151.82 134.112 L 151.82 134.112 Z  M 143.188 181.328 L 143.188 181.328 Q 145.788 181.328 149.064 175.088 L 149.064 175.088 L 149.064 175.088 Q 152.34 168.848 155.356 155.224 L 155.356 155.224 L 155.356 155.224 Q 147.348 162.088 143.812 167.6 L 143.812 167.6 L 143.812 167.6 Q 140.276 173.112 140.276 177.272 L 140.276 177.272 L 140.276 177.272 Q 140.276 179.04 140.952 180.184 L 140.952 180.184 L 140.952 180.184 Q 141.628 181.328 143.188 181.328 L 143.188 181.328 L 143.188 181.328 Z  M 197.58 88.768 L 197.58 88.768 Q 193.212 88.768 191.028 86.74 L 191.028 86.74 L 191.028 86.74 Q 188.844 84.712 188.844 81.072 L 188.844 81.072 L 188.844 81.072 Q 188.844 77.432 191.704 74.988 L 191.704 74.988 L 191.704 74.988 Q 194.564 72.544 198.828 72.544 L 198.828 72.544 L 198.828 72.544 Q 202.676 72.544 205.068 74.416 L 205.068 74.416 L 205.068 74.416 Q 207.46 76.288 207.46 79.72 L 207.46 79.72 L 207.46 79.72 Q 207.46 83.88 204.756 86.324 L 204.756 86.324 L 204.756 86.324 Q 202.052 88.768 197.58 88.768 L 197.58 88.768 L 197.58 88.768 Z  M 196.748 144.616 L 196.748 144.616 Q 189.988 144.616 186.92 139.832 L 186.92 139.832 L 186.92 139.832 Q 183.852 135.048 183.852 127.144 L 183.852 127.144 L 183.852 127.144 Q 183.852 122.464 185.048 115.132 L 185.048 115.132 L 185.048 115.132 Q 186.244 107.8 188.116 101.456 L 188.116 101.456 L 188.116 101.456 Q 189.052 98.128 190.612 96.88 L 190.612 96.88 L 190.612 96.88 Q 192.172 95.632 195.604 95.632 L 195.604 95.632 L 195.604 95.632 Q 200.908 95.632 200.908 99.168 L 200.908 99.168 L 200.908 99.168 Q 200.908 101.768 198.932 111.232 L 198.932 111.232 L 198.932 111.232 Q 196.436 122.672 196.436 126.728 L 196.436 126.728 L 196.436 126.728 Q 196.436 129.848 197.268 131.512 L 197.268 131.512 L 197.268 131.512 Q 198.1 133.176 200.076 133.176 L 200.076 133.176 L 200.076 133.176 Q 201.948 133.176 204.756 130.576 L 204.756 130.576 L 204.756 130.576 Q 207.564 127.976 212.244 122.36 L 212.244 122.36 L 212.244 122.36 Q 213.492 120.904 215.052 120.904 L 215.052 120.904 L 215.052 120.904 Q 216.404 120.904 217.184 122.152 L 217.184 122.152 L 217.184 122.152 Q 217.964 123.4 217.964 125.584 L 217.964 125.584 L 217.964 125.584 Q 217.964 129.744 215.988 132.032 L 215.988 132.032 L 215.988 132.032 Q 205.692 144.616 196.748 144.616 L 196.748 144.616 L 196.748 144.616 Z  M 228.884 146.904 L 228.884 146.904 Q 223.476 146.904 220.616 144.408 L 220.616 144.408 L 220.616 144.408 Q 217.756 141.912 217.756 138.792 L 217.756 138.792 L 217.756 138.792 Q 217.756 136.088 219.732 134.112 L 219.732 134.112 L 219.732 134.112 Q 221.708 132.136 225.556 132.136 L 225.556 132.136 L 225.556 132.136 Q 226.908 132.136 228.728 132.396 L 228.728 132.396 L 228.728 132.396 Q 230.548 132.656 231.484 132.76 L 231.484 132.76 L 231.484 132.76 Q 231.38 130.056 230.288 127.664 L 230.288 127.664 L 230.288 127.664 Q 229.196 125.272 227.532 123.036 L 227.532 123.036 L 227.532 123.036 Q 225.868 120.8 224.412 119.136 L 224.412 119.136 L 224.412 119.136 Q 221.188 125.272 218.016 129.328 L 218.016 129.328 L 218.016 129.328 Q 214.844 133.384 211.1 137.024 L 211.1 137.024 L 211.1 137.024 Q 209.228 138.896 207.148 138.896 L 207.148 138.896 L 207.148 138.896 Q 205.484 138.896 204.444 137.7 L 204.444 137.7 L 204.444 137.7 Q 203.404 136.504 203.404 134.736 L 203.404 134.736 L 203.404 134.736 Q 203.404 132.656 204.86 130.888 L 204.86 130.888 L 206.212 129.224 L 206.212 129.224 Q 211.932 122.152 214.844 117.576 L 214.844 117.576 L 214.844 117.576 Q 216.612 114.56 219.004 109.516 L 219.004 109.516 L 219.004 109.516 Q 221.396 104.472 223.684 99.064 L 223.684 99.064 L 223.684 99.064 Q 225.66 94.488 231.9 94.488 L 231.9 94.488 L 231.9 94.488 Q 234.812 94.488 235.956 95.008 L 235.956 95.008 L 235.956 95.008 Q 237.1 95.528 237.1 96.672 L 237.1 96.672 L 237.1 96.672 Q 237.1 97.296 236.684 98.648 L 236.684 98.648 L 236.684 98.648 Q 236.268 100 235.54 101.352 L 235.54 101.352 L 235.54 101.352 Q 233.668 105.096 233.668 107.696 L 233.668 107.696 L 233.668 107.696 Q 233.668 109.256 234.76 111.128 L 234.76 111.128 L 234.76 111.128 Q 235.852 113 238.14 115.808 L 238.14 115.808 L 238.14 115.808 Q 241.468 120.176 243.184 123.244 L 243.184 123.244 L 243.184 123.244 Q 244.9 126.312 244.9 129.952 L 244.9 129.952 L 244.9 129.952 Q 244.9 130.992 244.692 132.864 L 244.692 132.864 L 244.692 132.864 Q 249.788 130.888 256.652 122.36 L 256.652 122.36 L 256.652 122.36 Q 257.9 120.904 259.46 120.904 L 259.46 120.904 L 259.46 120.904 Q 260.812 120.904 261.592 122.152 L 261.592 122.152 L 261.592 122.152 Q 262.372 123.4 262.372 125.584 L 262.372 125.584 L 262.372 125.584 Q 262.372 129.536 260.396 132.032 L 260.396 132.032 L 260.396 132.032 Q 255.196 138.48 250.464 140.82 L 250.464 140.82 L 250.464 140.82 Q 245.732 143.16 238.764 143.368 L 238.764 143.368 L 238.764 143.368 Q 234.604 146.904 228.884 146.904 L 228.884 146.904 L 228.884 146.904 Z  M 300.332 120.904 L 300.332 120.904 Q 301.684 120.904 302.464 122.152 L 302.464 122.152 L 302.464 122.152 Q 303.244 123.4 303.244 125.584 L 303.244 125.584 L 303.244 125.584 Q 303.244 129.744 301.268 132.032 L 301.268 132.032 L 301.268 132.032 Q 296.796 137.544 291.492 141.08 L 291.492 141.08 L 291.492 141.08 Q 286.188 144.616 279.324 144.616 L 279.324 144.616 L 279.324 144.616 Q 258.108 144.616 258.108 114.768 L 258.108 114.768 L 258.108 114.768 Q 258.108 110.192 258.42 105.512 L 258.42 105.512 L 254.364 105.512 L 254.364 105.512 Q 251.244 105.512 250.152 104.368 L 250.152 104.368 L 250.152 104.368 Q 249.06 103.224 249.06 100.728 L 249.06 100.728 L 249.06 100.728 Q 249.06 94.904 253.74 94.904 L 253.74 94.904 L 259.668 94.904 L 259.668 94.904 Q 261.436 83.464 265.076 74 L 265.076 74 L 265.076 74 Q 268.716 64.536 273.864 58.92 L 273.864 58.92 L 273.864 58.92 Q 279.012 53.304 284.94 53.304 L 284.94 53.304 L 284.94 53.304 Q 289.308 53.304 291.804 57.152 L 291.804 57.152 L 291.804 57.152 Q 294.3 61 294.3 66.824 L 294.3 66.824 L 294.3 66.824 Q 294.3 82.944 280.78 94.904 L 280.78 94.904 L 292.428 94.904 L 292.428 94.904 Q 294.092 94.904 294.82 95.632 L 294.82 95.632 L 294.82 95.632 Q 295.548 96.36 295.548 98.336 L 295.548 98.336 L 295.548 98.336 Q 295.548 105.512 283.796 105.512 L 283.796 105.512 L 271.108 105.512 L 271.108 105.512 Q 270.9 110.712 270.9 113.624 L 270.9 113.624 L 270.9 113.624 Q 270.9 124.44 273.448 128.808 L 273.448 128.808 L 273.448 128.808 Q 275.996 133.176 281.508 133.176 L 281.508 133.176 L 281.508 133.176 Q 285.98 133.176 289.412 130.472 L 289.412 130.472 L 289.412 130.472 Q 292.844 127.768 297.524 122.36 L 297.524 122.36 L 297.524 122.36 Q 298.772 120.904 300.332 120.904 L 300.332 120.904 L 300.332 120.904 Z  M 282.132 63.288 L 282.132 63.288 Q 280.572 63.288 278.648 67.188 L 278.648 67.188 L 278.648 67.188 Q 276.724 71.088 275.008 78.004 L 275.008 78.004 L 275.008 78.004 Q 273.292 84.92 272.148 93.344 L 272.148 93.344 L 272.148 93.344 Q 278.284 88.04 281.352 81.436 L 281.352 81.436 L 281.352 81.436 Q 284.42 74.832 284.42 69.424 L 284.42 69.424 L 284.42 69.424 Q 284.42 63.288 282.132 63.288 L 282.132 63.288 L 282.132 63.288 Z  M 302.204 144.616 L 302.204 144.616 Q 298.252 144.616 296.64 140.456 L 296.64 140.456 L 296.64 140.456 Q 295.028 136.296 295.028 127.144 L 295.028 127.144 L 295.028 127.144 Q 295.028 113.624 298.876 101.456 L 298.876 101.456 L 298.876 101.456 Q 299.812 98.44 301.944 97.036 L 301.944 97.036 L 301.944 97.036 Q 304.076 95.632 307.924 95.632 L 307.924 95.632 L 307.924 95.632 Q 310.004 95.632 310.836 96.152 L 310.836 96.152 L 310.836 96.152 Q 311.668 96.672 311.668 98.128 L 311.668 98.128 L 311.668 98.128 Q 311.668 99.792 310.108 105.616 L 310.108 105.616 L 310.108 105.616 Q 309.068 109.776 308.444 112.896 L 308.444 112.896 L 308.444 112.896 Q 307.82 116.016 307.404 120.592 L 307.404 120.592 L 307.404 120.592 Q 310.836 111.648 315.1 106.032 L 315.1 106.032 L 315.1 106.032 Q 319.364 100.416 323.472 98.024 L 323.472 98.024 L 323.472 98.024 Q 327.58 95.632 331.012 95.632 L 331.012 95.632 L 331.012 95.632 Q 337.772 95.632 337.772 102.392 L 337.772 102.392 L 337.772 102.392 Q 337.772 103.744 336.836 108.944 L 336.836 108.944 L 336.836 108.944 Q 336.004 113.104 336.004 114.144 L 336.004 114.144 L 336.004 114.144 Q 336.004 117.784 338.604 117.784 L 338.604 117.784 L 338.604 117.784 Q 341.516 117.784 346.092 113.208 L 346.092 113.208 L 346.092 113.208 Q 347.444 111.856 348.9 111.856 L 348.9 111.856 L 348.9 111.856 Q 350.252 111.856 351.032 113.052 L 351.032 113.052 L 351.032 113.052 Q 351.812 114.248 351.812 116.224 L 351.812 116.224 L 351.812 116.224 Q 351.812 120.072 349.732 122.256 L 349.732 122.256 L 349.732 122.256 Q 346.82 125.272 342.92 127.404 L 342.92 127.404 L 342.92 127.404 Q 339.02 129.536 334.652 129.536 L 334.652 129.536 L 334.652 129.536 Q 329.14 129.536 326.28 126.728 L 326.28 126.728 L 326.28 126.728 Q 323.42 123.92 323.42 119.136 L 323.42 119.136 L 323.42 119.136 Q 323.42 117.576 323.732 116.016 L 323.732 116.016 L 323.732 116.016 Q 323.94 113.936 323.94 113.208 L 323.94 113.208 L 323.94 113.208 Q 323.94 111.544 322.796 111.544 L 322.796 111.544 L 322.796 111.544 Q 321.236 111.544 318.688 115.028 L 318.688 115.028 L 318.688 115.028 Q 316.14 118.512 313.644 124.232 L 313.644 124.232 L 313.644 124.232 Q 311.148 129.952 309.588 136.296 L 309.588 136.296 L 309.588 136.296 Q 308.444 141.184 306.936 142.9 L 306.936 142.9 L 306.936 142.9 Q 305.428 144.616 302.204 144.616 L 302.204 144.616 L 302.204 144.616 Z  M 389.564 174.048 L 389.564 174.048 Q 374.068 174.048 363.2 168.172 L 363.2 168.172 L 363.2 168.172 Q 352.332 162.296 346.768 152.208 L 346.768 152.208 L 346.768 152.208 Q 341.204 142.12 341.204 129.64 L 341.204 129.64 L 341.204 129.64 Q 341.204 113.416 347.912 99.168 L 347.912 99.168 L 347.912 99.168 Q 354.62 84.92 367.984 76.08 L 367.984 76.08 L 367.984 76.08 Q 381.348 67.24 400.172 67.24 L 400.172 67.24 L 400.172 67.24 Q 411.716 67.24 420.556 71.504 L 420.556 71.504 L 420.556 71.504 Q 429.396 75.768 434.388 84.14 L 434.388 84.14 L 434.388 84.14 Q 439.38 92.512 439.38 104.472 L 439.38 104.472 L 439.38 104.472 Q 439.38 116.432 435.272 125.584 L 435.272 125.584 L 435.272 125.584 Q 431.164 134.736 424.56 139.676 L 424.56 139.676 L 424.56 139.676 Q 417.956 144.616 410.78 144.616 L 410.78 144.616 L 410.78 144.616 Q 400.172 144.616 397.052 135.88 L 397.052 135.88 L 397.052 135.88 Q 395.076 139.936 391.696 142.276 L 391.696 142.276 L 391.696 142.276 Q 388.316 144.616 384.052 144.616 L 384.052 144.616 L 384.052 144.616 Q 377.084 144.616 373.184 139.988 L 373.184 139.988 L 373.184 139.988 Q 369.284 135.36 369.284 127.664 L 369.284 127.664 L 369.284 127.664 Q 369.284 119.344 373.132 111.908 L 373.132 111.908 L 373.132 111.908 Q 376.98 104.472 383.376 99.948 L 383.376 99.948 L 383.376 99.948 Q 389.772 95.424 396.948 95.424 L 396.948 95.424 L 396.948 95.424 Q 399.236 95.424 400.016 96.308 L 400.016 96.308 L 400.016 96.308 Q 400.796 97.192 401.316 99.48 L 401.316 99.48 L 401.316 99.48 Q 403.5 99.064 405.892 99.064 L 405.892 99.064 L 405.892 99.064 Q 410.988 99.064 410.988 102.704 L 410.988 102.704 L 410.988 102.704 Q 410.988 104.888 409.428 113.104 L 409.428 113.104 L 409.428 113.104 Q 407.036 125.064 407.036 129.744 L 407.036 129.744 L 407.036 129.744 Q 407.036 131.512 408.18 132.656 L 408.18 132.656 L 408.18 132.656 Q 409.324 133.8 411.924 133.8 L 411.924 133.8 L 411.924 133.8 Q 415.356 133.8 418.996 129.9 L 418.996 129.9 L 418.996 129.9 Q 422.636 126 425.08 119.188 L 425.08 119.188 L 425.08 119.188 Q 427.524 112.376 427.524 104.264 L 427.524 104.264 L 427.524 104.264 Q 427.524 91.784 419.88 85.232 L 419.88 85.232 L 419.88 85.232 Q 412.236 78.68 398.924 78.68 L 398.924 78.68 L 398.924 78.68 Q 384.676 78.68 374.692 85.648 L 374.692 85.648 L 374.692 85.648 Q 364.708 92.616 359.716 104.108 L 359.716 104.108 L 359.716 104.108 Q 354.724 115.6 354.724 129.12 L 354.724 129.12 L 354.724 129.12 Q 354.724 144.408 363.512 153.612 L 363.512 153.612 L 363.512 153.612 Q 372.3 162.816 389.98 162.816 L 389.98 162.816 L 389.98 162.816 Q 398.092 162.816 406.048 160.684 L 406.048 160.684 L 406.048 160.684 Q 414.004 158.552 422.532 154.08 L 422.532 154.08 L 422.532 154.08 Q 423.884 153.352 425.132 153.352 L 425.132 153.352 L 425.132 153.352 Q 427.212 153.352 428.564 154.964 L 428.564 154.964 L 428.564 154.964 Q 429.916 156.576 429.916 158.864 L 429.916 158.864 L 429.916 158.864 Q 429.916 160.528 429.084 162.036 L 429.084 162.036 L 429.084 162.036 Q 428.252 163.544 426.484 164.584 L 426.484 164.584 L 426.484 164.584 Q 418.996 169.16 409.168 171.604 L 409.168 171.604 L 409.168 171.604 Q 399.34 174.048 389.564 174.048 L 389.564 174.048 L 389.564 174.048 Z  M 387.172 134.112 L 387.172 134.112 Q 389.46 134.112 391.54 131.408 L 391.54 131.408 L 391.54 131.408 Q 393.62 128.704 394.556 124.232 L 394.556 124.232 L 398.404 105.096 L 398.404 105.096 Q 394.036 105.2 390.344 108.372 L 390.344 108.372 L 390.344 108.372 Q 386.652 111.544 384.468 116.744 L 384.468 116.744 L 384.468 116.744 Q 382.284 121.944 382.284 127.768 L 382.284 127.768 L 382.284 127.768 Q 382.284 130.992 383.584 132.552 L 383.584 132.552 L 383.584 132.552 Q 384.884 134.112 387.172 134.112 L 387.172 134.112 L 387.172 134.112 Z  M 467.564 144.616 L 467.564 144.616 Q 457.372 144.616 451.704 138.844 L 451.704 138.844 L 451.704 138.844 Q 446.036 133.072 446.036 123.608 L 446.036 123.608 L 446.036 123.608 Q 446.036 115.184 449.364 108.84 L 449.364 108.84 L 449.364 108.84 Q 452.692 102.496 457.996 99.064 L 457.996 99.064 L 457.996 99.064 Q 463.3 95.632 469.124 95.632 L 469.124 95.632 L 469.124 95.632 Q 474.844 95.632 478.016 99.012 L 478.016 99.012 L 478.016 99.012 Q 481.188 102.392 481.188 107.696 L 481.188 107.696 L 481.188 107.696 Q 481.188 112.064 479.264 115.08 L 479.264 115.08 L 479.264 115.08 Q 477.34 118.096 474.22 118.096 L 474.22 118.096 L 474.22 118.096 Q 472.244 118.096 471.048 117.16 L 471.048 117.16 L 471.048 117.16 Q 469.852 116.224 469.852 114.56 L 469.852 114.56 L 469.852 114.56 Q 469.852 113.832 470.06 112.896 L 470.06 112.896 L 470.06 112.896 Q 470.268 111.96 470.372 111.544 L 470.372 111.544 L 470.372 111.544 Q 470.892 109.984 470.892 108.632 L 470.892 108.632 L 470.892 108.632 Q 470.892 107.28 470.216 106.552 L 470.216 106.552 L 470.216 106.552 Q 469.54 105.824 468.292 105.824 L 468.292 105.824 L 468.292 105.824 Q 465.9 105.824 463.82 107.956 L 463.82 107.956 L 463.82 107.956 Q 461.74 110.088 460.492 113.728 L 460.492 113.728 L 460.492 113.728 Q 459.244 117.368 459.244 121.736 L 459.244 121.736 L 459.244 121.736 Q 459.244 133.8 469.748 133.8 L 469.748 133.8 L 469.748 133.8 Q 474.012 133.8 478.952 130.94 L 478.952 130.94 L 478.952 130.94 Q 483.892 128.08 488.676 122.36 L 488.676 122.36 L 488.676 122.36 Q 489.924 120.904 491.484 120.904 L 491.484 120.904 L 491.484 120.904 Q 492.836 120.904 493.616 122.152 L 493.616 122.152 L 493.616 122.152 Q 494.396 123.4 494.396 125.584 L 494.396 125.584 L 494.396 125.584 Q 494.396 129.536 492.42 132.032 L 492.42 132.032 L 492.42 132.032 Q 487.532 138.064 480.72 141.34 L 480.72 141.34 L 480.72 141.34 Q 473.908 144.616 467.564 144.616 L 467.564 144.616 L 467.564 144.616 Z " fill="rgb(0,60,215)"/></g></svg>