<?xml version="1.0" encoding="UTF-8" standalone="no"?><!-- Generator: Gravit.io --><svg xmlns="http://www.w3.org/2000/svg" xmlns:xlink="http://www.w3.org/1999/xlink" style="isolation:isolate" viewBox="0 0 1280 700" width="1280pt" height="700pt"><defs><clipPath id="_clipPath_agU9KswZoVrIBmQQEmiLzffsV73JvJs9"><rect width="1280" height="700"/></clipPath></defs><g clip-path="url(#_clipPath_agU9KswZoVrIBmQQEmiLzffsV73JvJs9)"><g><g style="mix-blend-mode:normal;" opacity="0.1"><path d="M 448.842 73.004 L 514.819 73.004 C 517.521 73.004 519.715 75.198 519.715 77.9 L 519.715 96.521 C 519.715 99.223 517.521 101.417 514.819 101.417 L 448.842 101.417 C 446.139 101.417 443.945 99.223 443.945 96.521 L 443.945 77.9 C 443.945 75.198 446.139 73.004 448.842 73.004 Z" style="stroke:none;fill:#38D39F;stroke-miterlimit:10;"/></g><g style="mix-blend-mode:normal;" opacity="0.1"><path d="M 674.257 47.431 L 740.234 47.431 C 742.937 47.431 745.131 49.625 745.131 52.328 L 745.131 70.948 C 745.131 73.651 742.937 75.845 740.234 75.845 L 674.257 75.845 C 671.555 75.845 669.361 73.651 669.361 70.948 L 669.361 52.328 C 669.361 49.625 671.555 47.431 674.257 47.431 Z" style="stroke:none;fill:#38D39F;stroke-miterlimit:10;"/></g><g style="mix-blend-mode:normal;" opacity="0.1"><path d="M 632.584 336.304 L 698.561 336.304 C 701.263 336.304 703.457 338.498 703.457 341.201 L 703.457 359.821 C 703.457 362.524 701.263 364.718 698.561 364.718 L 632.584 364.718 C 629.881 364.718 627.687 362.524 627.687 359.821 L 627.687 341.201 C 627.687 338.498 629.881 336.304 632.584 336.304 Z" style="stroke:none;fill:#38D39F;stroke-miterlimit:10;"/></g><g style="mix-blend-mode:normal;" opacity="0.1"><path d="M 666.68 367.559 L 732.657 367.559 C 735.36 367.559 737.554 369.753 737.554 372.456 L 737.554 391.076 C 737.554 393.779 735.36 395.973 732.657 395.973 L 666.68 395.973 C 663.978 395.973 661.784 393.779 661.784 391.076 L 661.784 372.456 C 661.784 369.753 663.978 367.559 666.68 367.559 Z" style="stroke:none;fill:#38D39F;stroke-miterlimit:10;"/></g><g style="mix-blend-mode:normal;" opacity="0.1"><path d="M 869.365 353.352 L 935.342 353.352 C 938.044 353.352 940.238 355.547 940.238 358.249 L 940.238 376.87 C 940.238 379.572 938.044 381.766 935.342 381.766 L 869.365 381.766 C 866.663 381.766 864.469 379.572 864.469 376.87 L 864.469 358.249 C 864.469 355.547 866.663 353.352 869.365 353.352 Z" style="stroke:none;fill:#38D39F;stroke-miterlimit:10;"/></g><g style="mix-blend-mode:normal;" opacity="0.1"><path d="M 252.787 376.083 L 318.764 376.083 C 321.466 376.083 323.66 378.278 323.66 380.98 L 323.66 399.601 C 323.66 402.303 321.466 404.497 318.764 404.497 L 252.787 404.497 C 250.085 404.497 247.89 402.303 247.89 399.601 L 247.89 380.98 C 247.89 378.278 250.085 376.083 252.787 376.083 Z" style="stroke:none;fill:#38D39F;stroke-miterlimit:10;"/></g><g style="mix-blend-mode:normal;" opacity="0.1"><path d="M 608.906 398.814 L 674.883 398.814 C 677.585 398.814 679.779 401.008 679.779 403.711 L 679.779 422.331 C 679.779 425.034 677.585 427.228 674.883 427.228 L 608.906 427.228 C 606.203 427.228 604.009 425.034 604.009 422.331 L 604.009 403.711 C 604.009 401.008 606.203 398.814 608.906 398.814 Z" style="stroke:none;fill:#38D39F;stroke-miterlimit:10;"/></g><g opacity="0.1"><ellipse vector-effect="non-scaling-stroke" cx="640" cy="653.5908964762392" rx="508.6058896379502" ry="46.40910352376079" fill="rgb(56,211,159)"/></g><g style="mix-blend-mode:normal;" opacity="0.1"><path d="M 374.966 244.433 L 440.943 244.433 C 443.645 244.433 445.839 246.627 445.839 249.33 L 445.839 267.95 C 445.839 270.653 443.645 272.847 440.943 272.847 L 374.966 272.847 C 372.264 272.847 370.069 270.653 370.069 267.95 L 370.069 249.33 C 370.069 246.627 372.264 244.433 374.966 244.433 Z" style="stroke:none;fill:#38D39F;stroke-miterlimit:10;"/></g><g style="mix-blend-mode:normal;" opacity="0.1"><path d="M 409.063 275.688 L 475.039 275.688 C 477.742 275.688 479.936 277.882 479.936 280.585 L 479.936 299.205 C 479.936 301.908 477.742 304.102 475.039 304.102 L 409.063 304.102 C 406.36 304.102 404.166 301.908 404.166 299.205 L 404.166 280.585 C 404.166 277.882 406.36 275.688 409.063 275.688 Z" style="stroke:none;fill:#38D39F;stroke-miterlimit:10;"/></g><g style="mix-blend-mode:normal;" opacity="0.1"><path d="M 707.407 246.327 L 773.384 246.327 C 776.086 246.327 778.28 248.521 778.28 251.224 L 778.28 269.844 C 778.28 272.547 776.086 274.741 773.384 274.741 L 707.407 274.741 C 704.704 274.741 702.51 272.547 702.51 269.844 L 702.51 251.224 C 702.51 248.521 704.704 246.327 707.407 246.327 Z" style="stroke:none;fill:#38D39F;stroke-miterlimit:10;"/></g><g style="mix-blend-mode:normal;" opacity="0.1"><path d="M 741.503 277.582 L 807.48 277.582 C 810.183 277.582 812.377 279.777 812.377 282.479 L 812.377 301.1 C 812.377 303.802 810.183 305.996 807.48 305.996 L 741.503 305.996 C 738.801 305.996 736.607 303.802 736.607 301.1 L 736.607 282.479 C 736.607 279.777 738.801 277.582 741.503 277.582 Z" style="stroke:none;fill:#38D39F;stroke-miterlimit:10;"/></g><g style="mix-blend-mode:normal;" opacity="0.1"><path d="M 351.288 306.943 L 417.265 306.943 C 419.967 306.943 422.161 309.137 422.161 311.84 L 422.161 330.46 C 422.161 333.163 419.967 335.357 417.265 335.357 L 351.288 335.357 C 348.585 335.357 346.391 333.163 346.391 330.46 L 346.391 311.84 C 346.391 309.137 348.585 306.943 351.288 306.943 Z" style="stroke:none;fill:#38D39F;stroke-miterlimit:10;"/></g><g style="mix-blend-mode:normal;" opacity="0.1"><path d="M 427.058 417.757 L 493.035 417.757 C 495.737 417.757 497.931 419.951 497.931 422.654 L 497.931 441.274 C 497.931 443.977 495.737 446.171 493.035 446.171 L 427.058 446.171 C 424.355 446.171 422.161 443.977 422.161 441.274 L 422.161 422.654 C 422.161 419.951 424.355 417.757 427.058 417.757 Z" style="stroke:none;fill:#38D39F;stroke-miterlimit:10;"/></g><g style="mix-blend-mode:normal;" opacity="0.1"><path d="M 461.154 449.012 L 527.131 449.012 C 529.834 449.012 532.028 451.206 532.028 453.909 L 532.028 472.529 C 532.028 475.232 529.834 477.426 527.131 477.426 L 461.154 477.426 C 458.452 477.426 456.258 475.232 456.258 472.529 L 456.258 453.909 C 456.258 451.206 458.452 449.012 461.154 449.012 Z" style="stroke:none;fill:#38D39F;stroke-miterlimit:10;"/></g><g style="mix-blend-mode:normal;" opacity="0.1"><path d="M 403.38 480.267 L 469.357 480.267 C 472.059 480.267 474.253 482.461 474.253 485.164 L 474.253 503.784 C 474.253 506.487 472.059 508.681 469.357 508.681 L 403.38 508.681 C 400.677 508.681 398.483 506.487 398.483 503.784 L 398.483 485.164 C 398.483 482.461 400.677 480.267 403.38 480.267 Z" style="stroke:none;fill:#38D39F;stroke-miterlimit:10;"/></g><g style="mix-blend-mode:normal;" opacity="0.1"><path d="M 732.032 497.315 L 798.009 497.315 C 800.711 497.315 802.905 499.509 802.905 502.212 L 802.905 520.832 C 802.905 523.535 800.711 525.729 798.009 525.729 L 732.032 525.729 C 729.33 525.729 727.135 523.535 727.135 520.832 L 727.135 502.212 C 727.135 499.509 729.33 497.315 732.032 497.315 Z" style="stroke:none;fill:#38D39F;stroke-miterlimit:10;"/></g><g style="mix-blend-mode:normal;" opacity="0.1"><path d="M 674.257 528.57 L 740.234 528.57 C 742.937 528.57 745.131 530.765 745.131 533.467 L 745.131 552.088 C 745.131 554.79 742.937 556.984 740.234 556.984 L 674.257 556.984 C 671.555 556.984 669.361 554.79 669.361 552.088 L 669.361 533.467 C 669.361 530.765 671.555 528.57 674.257 528.57 Z" style="stroke:none;fill:#38D39F;stroke-miterlimit:10;"/></g><g style="opacity:0.1;"><g opacity="0.1"><mask id="_mask_jYp7jEKNvy9SEudR9BU2wRordY5vXWKr" x="-200%" y="-200%" width="400%" height="400%"><rect x="-200%" y="-200%" width="400%" height="400%" style="fill:white;"/><path d=" M 1026.673 628.388 C 1026.673 628.388 1012.959 558.907 1041.202 511.285 C 1053.174 491.388 1058.368 468.144 1056.006 445.044 C 1054.788 434.085 1052.569 423.262 1049.376 412.709" fill="black" stroke="none"/></mask><path d=" M 1026.673 628.388 C 1026.673 628.388 1012.959 558.907 1041.202 511.285 C 1053.174 491.388 1058.368 468.144 1056.006 445.044 C 1054.788 434.085 1052.569 423.262 1049.376 412.709" fill="none" mask="url(#_mask_jYp7jEKNvy9SEudR9BU2wRordY5vXWKr)" vector-effect="non-scaling-stroke" stroke-width="3.788" stroke="rgb(83,84,97)" stroke-linejoin="miter" stroke-linecap="butt" stroke-miterlimit="10"/><path d=" M 1026.673 628.388 C 1026.673 628.388 1012.959 558.907 1041.202 511.285 C 1053.174 491.388 1058.368 468.144 1056.006 445.044 C 1054.788 434.085 1052.569 423.262 1049.376 412.709" fill="none"/></g><g opacity="0.1"><path d=" M 1067.011 382.59 C 1066.253 390.877 1049.016 413.542 1049.016 413.542 C 1049.016 413.542 1036.211 388.121 1036.978 379.825 C 1037.896 371.669 1045.167 365.746 1053.34 366.496 C 1061.512 367.246 1067.584 374.395 1067.002 382.581 L 1067.011 382.59 Z " fill="rgb(56,211,159)"/></g><g opacity="0.1"><path d=" M 1087.611 430.799 C 1082.468 437.343 1055.693 447.014 1055.693 447.014 C 1055.693 447.014 1058.762 418.713 1063.905 412.169 C 1067.141 407.67 1072.584 405.309 1078.08 406.02 C 1083.576 406.732 1088.239 410.4 1090.223 415.575 C 1092.208 420.749 1091.194 426.595 1087.583 430.799 L 1087.611 430.799 Z " fill="rgb(56,211,159)"/></g><g opacity="0.1"><path d=" M 1079.314 509.154 C 1071.567 512.204 1043.579 507.033 1043.579 507.033 C 1043.579 507.033 1060.514 484.15 1068.261 481.101 C 1075.97 478.203 1084.577 482.026 1087.595 489.688 C 1090.614 497.349 1086.927 506.015 1079.314 509.154 L 1079.314 509.154 Z " fill="rgb(56,211,159)"/></g><g opacity="0.1"><path d=" M 1059.68 567.071 C 1052.558 571.39 1024.097 571.021 1024.097 571.021 C 1024.097 571.021 1036.921 545.609 1044.043 541.29 C 1048.653 538.389 1054.468 538.199 1059.257 540.794 C 1064.046 543.388 1067.064 548.363 1067.151 553.809 C 1067.239 559.254 1064.383 564.324 1059.68 567.071 L 1059.68 567.071 Z " fill="rgb(56,211,159)"/></g><g opacity="0.1"><path d=" M 1024.021 445.697 C 1029.439 452.024 1056.593 460.548 1056.593 460.548 C 1056.593 460.548 1052.331 432.399 1046.923 426.082 C 1043.444 421.901 1037.984 419.917 1032.634 420.89 C 1027.283 421.863 1022.871 425.642 1021.087 430.78 C 1019.303 435.918 1020.424 441.618 1024.021 445.697 L 1024.021 445.697 Z " fill="rgb(56,211,159)"/></g><g opacity="0.1"><path d=" M 1001.915 513.72 C 1008.971 518.133 1037.442 518.143 1037.442 518.143 C 1037.442 518.143 1024.959 492.57 1017.893 488.147 C 1013.323 485.204 1007.522 484.949 1002.711 487.479 C 997.9 490.01 994.823 494.934 994.658 500.367 C 994.494 505.801 997.266 510.902 1001.915 513.72 L 1001.915 513.72 Z " fill="rgb(56,211,159)"/></g><g opacity="0.1"><path d=" M 989.489 582.755 C 995.702 588.296 1023.756 593.126 1023.756 593.126 C 1023.756 593.126 1015.772 565.802 1009.549 560.261 C 1005.564 556.461 999.823 555.135 994.575 556.804 C 989.327 558.472 985.406 562.869 984.346 568.273 C 983.287 573.678 985.259 579.229 989.489 582.755 L 989.489 582.755 Z " fill="rgb(56,211,159)"/></g></g><g style="opacity:0.1;"><g opacity="0.1"><mask id="_mask_HlqV1nBsfCjYCMLqmLKkcagh5g0ZVNgQ" x="-200%" y="-200%" width="400%" height="400%"><rect x="-200%" y="-200%" width="400%" height="400%" style="fill:white;"/><path d=" M 907.686 613.139 C 907.686 613.139 900.327 575.832 915.481 550.26 C 921.909 539.574 924.697 527.091 923.427 514.686 C 922.779 508.803 921.593 502.991 919.885 497.325" fill="black" stroke="none"/></mask><path d=" M 907.686 613.139 C 907.686 613.139 900.327 575.832 915.481 550.26 C 921.909 539.574 924.697 527.091 923.427 514.686 C 922.779 508.803 921.593 502.991 919.885 497.325" fill="none" mask="url(#_mask_HlqV1nBsfCjYCMLqmLKkcagh5g0ZVNgQ)" vector-effect="non-scaling-stroke" stroke-width="3.788" stroke="rgb(83,84,97)" stroke-linejoin="miter" stroke-linecap="butt" stroke-miterlimit="10"/><path d=" M 907.686 613.139 C 907.686 613.139 900.327 575.832 915.481 550.26 C 921.909 539.574 924.697 527.091 923.427 514.686 C 922.779 508.803 921.593 502.991 919.885 497.325" fill="none"/></g><g opacity="0.1"><path d=" M 929.347 481.148 C 928.939 485.599 919.686 497.77 919.686 497.77 C 919.686 497.77 912.81 484.122 913.217 479.67 C 913.855 475.428 917.692 472.419 921.965 472.811 C 926.237 473.203 929.463 476.86 929.318 481.148 L 929.347 481.148 Z " fill="rgb(56,211,159)"/></g><g opacity="0.1"><path d=" M 940.399 507.033 C 937.634 510.547 923.257 515.737 923.257 515.737 C 923.257 515.737 924.905 500.583 927.67 497.031 C 930.477 493.671 935.446 493.151 938.888 495.855 C 942.33 498.56 943 503.511 940.399 507.033 Z " fill="rgb(56,211,159)"/></g><g opacity="0.1"><path d=" M 935.948 549.123 C 931.79 550.762 916.759 547.987 916.759 547.987 C 916.759 547.987 925.852 535.674 930.019 534.064 C 934.136 532.588 938.681 534.647 940.286 538.716 C 941.89 542.784 939.974 547.392 935.957 549.123 L 935.948 549.123 Z " fill="rgb(56,211,159)"/></g><g opacity="0.1"><path d=" M 925.407 580.189 C 921.618 582.509 906.303 582.31 906.303 582.31 C 906.303 582.31 913.189 568.662 917.015 566.342 C 919.492 564.759 922.631 564.642 925.218 566.037 C 927.806 567.432 929.434 570.119 929.473 573.058 C 929.512 575.996 927.956 578.726 925.407 580.189 L 925.407 580.189 Z " fill="rgb(56,211,159)"/></g><g opacity="0.1"><path d=" M 906.256 515.046 C 909.163 518.446 923.749 523.02 923.749 523.02 C 923.749 523.02 921.466 507.866 918.559 504.513 C 915.65 501.113 910.537 500.715 907.136 503.623 C 903.736 506.532 903.338 511.645 906.246 515.046 L 906.256 515.046 Z " fill="rgb(56,211,159)"/></g><g opacity="0.1"><path d=" M 894.388 551.557 C 898.177 553.925 913.463 553.934 913.463 553.934 C 913.463 553.934 906.758 540.201 902.969 537.833 C 899.182 535.551 894.265 536.729 891.922 540.478 C 889.579 544.228 890.677 549.164 894.388 551.567 L 894.388 551.557 Z " fill="rgb(56,211,159)"/></g><g opacity="0.1"><path d=" M 887.73 588.628 C 891.064 591.602 906.133 594.197 906.133 594.197 C 906.133 594.197 901.852 579.526 898.556 576.552 C 895.208 573.669 890.168 574.001 887.228 577.298 C 884.287 580.595 884.532 585.64 887.777 588.637 L 887.73 588.628 Z " fill="rgb(56,211,159)"/></g></g><g style="opacity:0.1;"><g opacity="0.1"><mask id="_mask_6TPzXENvtycOui3hehmnsxX6i48RFgUb" x="-200%" y="-200%" width="400%" height="400%"><rect x="-200%" y="-200%" width="400%" height="400%" style="fill:white;"/><path d=" M 308.156 618.822 C 308.156 618.822 300.797 581.515 315.951 555.942 C 322.379 545.257 325.167 532.774 323.897 520.368 C 323.249 514.485 322.063 508.674 320.355 503.008" fill="black" stroke="none"/></mask><path d=" M 308.156 618.822 C 308.156 618.822 300.797 581.515 315.951 555.942 C 322.379 545.257 325.167 532.774 323.897 520.368 C 323.249 514.485 322.063 508.674 320.355 503.008" fill="none" mask="url(#_mask_6TPzXENvtycOui3hehmnsxX6i48RFgUb)" vector-effect="non-scaling-stroke" stroke-width="3.788" stroke="rgb(83,84,97)" stroke-linejoin="miter" stroke-linecap="butt" stroke-miterlimit="10"/><path d=" M 308.156 618.822 C 308.156 618.822 300.797 581.515 315.951 555.942 C 322.379 545.257 325.167 532.774 323.897 520.368 C 323.249 514.485 322.063 508.674 320.355 503.008" fill="none"/></g><g opacity="0.1"><path d=" M 329.817 486.831 C 329.409 491.282 320.156 503.453 320.156 503.453 C 320.156 503.453 313.28 489.805 313.687 485.353 C 314.325 481.11 318.162 478.102 322.435 478.494 C 326.708 478.886 329.933 482.543 329.788 486.831 L 329.817 486.831 Z " fill="rgb(56,211,159)"/></g><g opacity="0.1"><path d=" M 340.87 512.716 C 338.104 516.229 323.727 521.42 323.727 521.42 C 323.727 521.42 325.375 506.266 328.14 502.714 C 330.947 499.354 335.916 498.833 339.358 501.538 C 342.8 504.243 343.47 509.194 340.87 512.716 L 340.87 512.716 Z " fill="rgb(56,211,159)"/></g><g opacity="0.1"><path d=" M 336.418 554.806 C 332.26 556.444 317.229 553.669 317.229 553.669 C 317.229 553.669 326.322 541.357 330.489 539.747 C 334.606 538.27 339.151 540.33 340.756 544.399 C 342.36 548.467 340.444 553.075 336.428 554.806 L 336.418 554.806 Z " fill="rgb(56,211,159)"/></g><g opacity="0.1"><path d=" M 325.877 585.871 C 322.088 588.192 306.773 587.993 306.773 587.993 C 306.773 587.993 313.659 574.345 317.485 572.025 C 319.962 570.442 323.101 570.325 325.689 571.72 C 328.276 573.115 329.904 575.802 329.943 578.74 C 329.982 581.679 328.426 584.409 325.877 585.871 L 325.877 585.871 Z " fill="rgb(56,211,159)"/></g><g opacity="0.1"><path d=" M 306.726 520.728 C 309.633 524.128 324.219 528.703 324.219 528.703 C 324.219 528.703 321.937 513.549 319.029 510.196 C 316.121 506.796 311.007 506.398 307.607 509.306 C 304.207 512.214 303.808 517.328 306.716 520.728 L 306.726 520.728 Z " fill="rgb(56,211,159)"/></g><g opacity="0.1"><path d=" M 294.858 557.24 C 298.647 559.608 313.933 559.617 313.933 559.617 C 313.933 559.617 307.228 545.884 303.439 543.516 C 299.652 541.234 294.735 542.411 292.392 546.161 C 290.049 549.911 291.147 554.846 294.858 557.249 L 294.858 557.24 Z " fill="rgb(56,211,159)"/></g><g opacity="0.1"><path d=" M 288.2 594.31 C 291.534 597.284 306.603 599.879 306.603 599.879 C 306.603 599.879 302.322 585.209 299.026 582.235 C 295.678 579.352 290.638 579.684 287.698 582.981 C 284.757 586.278 285.002 591.323 288.247 594.32 L 288.2 594.31 Z " fill="rgb(56,211,159)"/></g></g></g></g></svg>