<?xml version="1.0" standalone="no"?><!-- Generator: Gravit.io --><svg xmlns="http://www.w3.org/2000/svg" xmlns:xlink="http://www.w3.org/1999/xlink" style="isolation:isolate" viewBox="0 0 3000 3000" width="3000" height="3000"><defs><clipPath id="_clipPath_V9GRRulzYjgkVnfKvHfGxkTCm1IY6NiM"><rect width="3000" height="3000"/></clipPath></defs><g clip-path="url(#_clipPath_V9GRRulzYjgkVnfKvHfGxkTCm1IY6NiM)"><g style="isolation:isolate"/><g style="isolation:isolate"/><g><g><path d="M 154.422 1106.159 L 1832.516 137.311 C 1857.474 122.902 1889.434 131.466 1903.844 156.423 L 2872.69 1834.514 C 2887.099 1859.471 2878.535 1891.432 2853.578 1905.841 L 1175.484 2874.689 C 1150.526 2889.098 1118.566 2880.534 1104.156 2855.577 L 135.31 1177.486 C 120.901 1152.529 129.465 1120.568 154.422 1106.159 Z" style="stroke:none;fill:#DB5F7A;stroke-miterlimit:10;"/><path d="M 98.252 1434.542 L 1501.639 98.439 C 1522.511 78.568 1555.589 79.381 1575.461 100.252 L 2911.561 1503.637 C 2931.432 1524.509 2930.619 1557.587 2909.748 1577.458 L 1506.361 2913.561 C 1485.489 2933.432 1452.411 2932.619 1432.539 2911.748 L 96.439 1508.363 C 76.568 1487.491 77.381 1454.413 98.252 1434.542 Z" style="stroke:none;fill:#5FDBBA;stroke-miterlimit:10;"/><path d="M 217.557 2077.223 L 866.099 251.283 C 875.745 224.127 905.623 209.91 932.779 219.556 L 2758.716 868.097 C 2785.872 877.742 2800.089 907.62 2790.443 934.777 L 2141.901 2760.717 C 2132.255 2787.873 2102.377 2802.09 2075.221 2792.444 L 249.284 2143.903 C 222.128 2134.258 207.911 2104.38 217.557 2077.223 Z" style="stroke:none;fill:#705FDB;stroke-miterlimit:10;"/><circle vector-effect="non-scaling-stroke" cx="1169.5" cy="1840.499999999999" r="334.5" fill="rgb(61,48,151)"/><circle vector-effect="non-scaling-stroke" cx="1161.5" cy="1832.499999999999" r="334.5" fill="rgb(255,255,255)"/><path d="M 875.386 837 L 2132.614 837 C 2154.904 837 2173 855.096 2173 877.386 L 2173 1131.114 C 2173 1153.404 2154.904 1171.5 2132.614 1171.5 L 875.386 1171.5 C 853.096 1171.5 835 1153.404 835 1131.114 L 835 877.386 C 835 855.096 853.096 837 875.386 837 Z" style="stroke:none;fill:#3D3097;stroke-miterlimit:10;"/><path d="M 868.386 830 L 2125.614 830 C 2147.904 830 2166 848.096 2166 870.386 L 2166 1124.114 C 2166 1146.404 2147.904 1164.5 2125.614 1164.5 L 868.386 1164.5 C 846.096 1164.5 828 1146.404 828 1124.114 L 828 870.386 C 828 848.096 846.096 830 868.386 830 Z" style="stroke:none;fill:#FFFFFF;stroke-miterlimit:10;"/><path d="M 1838.5 2134.61 L 1838.5 877.39 C 1838.5 855.098 1856.598 837 1878.89 837 L 2132.61 837 C 2154.902 837 2173 855.098 2173 877.39 L 2173 2134.61 C 2173 2156.902 2154.902 2175 2132.61 2175 L 1878.89 2175 C 1856.598 2175 1838.5 2156.902 1838.5 2134.61 Z" style="stroke:none;fill:#3D3097;stroke-miterlimit:10;"/><path d="M 1831.5 2127.61 L 1831.5 870.39 C 1831.5 848.098 1849.598 830 1871.89 830 L 2125.61 830 C 2147.902 830 2166 848.098 2166 870.39 L 2166 2127.61 C 2166 2149.902 2147.902 2168 2125.61 2168 L 1871.89 2168 C 1849.598 2168 1831.5 2149.902 1831.5 2127.61 Z" style="stroke:none;fill:#FFFFFF;stroke-miterlimit:10;"/></g></g></g></svg>